name rise42.5664peak47.7979fall81.9185.mot
datacolumns 19
datarows 36
range 17.51326800000000 17.57159800000000
endheader
time	ground_force1_vx	ground_force1_vy	ground_force1_vz	ground_force1_px	ground_force1_py	ground_force1_pz	ground_force2_vx	ground_force2_vy	ground_force2_vz	ground_force2_px	ground_force2_py	ground_force2_pz	ground_torque1_x	ground_torque1_y	ground_torque1_z	ground_torque2_x	ground_torque2_y	ground_torque2_z	
17.51326800000000	10.30225100000000	711.59732799999995	34.62360600000000	0.20843000000000	0.00000000000000	0.09731700000000	0.00000000000000	0.00000000000000	0.00000000000000	0.00000000000000	0.00000000000000	0.00000000000000	0.00000000000000	13.15475000000000	0.00000000000000	0.00000000000000	0.00000000000000	0.00000000000000	
17.51493500000000	10.00425000000000	713.10763299999996	34.67172500000000	0.20759200000000	0.00000000000000	0.09730700000000	0.00000000000000	0.00000000000000	0.00000000000000	0.00000000000000	0.00000000000000	0.00000000000000	0.00000000000000	13.20881800000000	0.00000000000000	0.00000000000000	0.00000000000000	0.00000000000000	
17.51660200000000	9.69710500000000	714.63470099999995	34.72272300000000	0.20674000000000	0.00000000000000	0.09729800000000	0.00000000000000	0.00000000000000	0.00000000000000	0.00000000000000	0.00000000000000	0.00000000000000	0.00000000000000	13.26603600000000	0.00000000000000	0.00000000000000	0.00000000000000	0.00000000000000	
17.51827000000000	9.38074100000000	716.17559200000005	34.77629600000000	0.20587600000000	0.00000000000000	0.09729200000000	0.00000000000000	0.00000000000000	0.00000000000000	0.00000000000000	0.00000000000000	0.00000000000000	0.00000000000000	13.32627500000000	0.00000000000000	0.00000000000000	0.00000000000000	0.00000000000000	
17.51993700000000	9.05511400000000	717.72745599999996	34.83215200000000	0.20500000000000	0.00000000000000	0.09728600000000	0.00000000000000	0.00000000000000	0.00000000000000	0.00000000000000	0.00000000000000	0.00000000000000	0.00000000000000	13.38940100000000	0.00000000000000	0.00000000000000	0.00000000000000	0.00000000000000	
17.52160000000000	8.72020800000000	719.28754700000002	34.89000700000000	0.20411300000000	0.00000000000000	0.09728200000000	0.00000000000000	0.00000000000000	0.00000000000000	0.00000000000000	0.00000000000000	0.00000000000000	0.00000000000000	13.45528000000000	0.00000000000000	0.00000000000000	0.00000000000000	0.00000000000000	
17.52326300000000	8.37603300000000	720.85322499999995	34.94959200000000	0.20321500000000	0.00000000000000	0.09728000000000	0.00000000000000	0.00000000000000	0.00000000000000	0.00000000000000	0.00000000000000	0.00000000000000	0.00000000000000	13.52377800000000	0.00000000000000	0.00000000000000	0.00000000000000	0.00000000000000	
17.52493500000000	8.02262800000000	722.42196300000001	35.01064700000000	0.20230800000000	0.00000000000000	0.09727900000000	0.00000000000000	0.00000000000000	0.00000000000000	0.00000000000000	0.00000000000000	0.00000000000000	0.00000000000000	13.59475700000000	0.00000000000000	0.00000000000000	0.00000000000000	0.00000000000000	
17.52659800000000	7.66005900000000	723.99135400000000	35.07292700000000	0.20139100000000	0.00000000000000	0.09727900000000	0.00000000000000	0.00000000000000	0.00000000000000	0.00000000000000	0.00000000000000	0.00000000000000	0.00000000000000	13.66808100000000	0.00000000000000	0.00000000000000	0.00000000000000	0.00000000000000	
17.52826200000000	7.28841600000000	725.55911400000002	35.13620000000000	0.20046700000000	0.00000000000000	0.09728000000000	0.00000000000000	0.00000000000000	0.00000000000000	0.00000000000000	0.00000000000000	0.00000000000000	0.00000000000000	13.74361200000000	0.00000000000000	0.00000000000000	0.00000000000000	0.00000000000000	
17.52993500000000	6.90781700000000	727.12308599999994	35.20025000000000	0.19953400000000	0.00000000000000	0.09728200000000	0.00000000000000	0.00000000000000	0.00000000000000	0.00000000000000	0.00000000000000	0.00000000000000	0.00000000000000	13.82121100000000	0.00000000000000	0.00000000000000	0.00000000000000	0.00000000000000	
17.53160300000000	6.51840200000000	728.68124499999999	35.26487800000000	0.19859600000000	0.00000000000000	0.09728500000000	0.00000000000000	0.00000000000000	0.00000000000000	0.00000000000000	0.00000000000000	0.00000000000000	0.00000000000000	13.90074100000000	0.00000000000000	0.00000000000000	0.00000000000000	0.00000000000000	
17.53326400000000	6.12033700000000	730.23169600000006	35.32990100000000	0.19765100000000	0.00000000000000	0.09728800000000	0.00000000000000	0.00000000000000	0.00000000000000	0.00000000000000	0.00000000000000	0.00000000000000	0.00000000000000	13.98206200000000	0.00000000000000	0.00000000000000	0.00000000000000	0.00000000000000	
17.53493200000000	5.71380900000000	731.77268500000002	35.39515200000000	0.19670100000000	0.00000000000000	0.09729200000000	0.00000000000000	0.00000000000000	0.00000000000000	0.00000000000000	0.00000000000000	0.00000000000000	0.00000000000000	14.06503600000000	0.00000000000000	0.00000000000000	0.00000000000000	0.00000000000000	
17.53659500000000	5.29902900000000	733.30259200000000	35.46048200000000	0.19574800000000	0.00000000000000	0.09729700000000	0.00000000000000	0.00000000000000	0.00000000000000	0.00000000000000	0.00000000000000	0.00000000000000	0.00000000000000	14.14952300000000	0.00000000000000	0.00000000000000	0.00000000000000	0.00000000000000	
17.53827000000000	4.87622700000000	734.81993499999999	35.52576200000000	0.19479000000000	0.00000000000000	0.09730200000000	0.00000000000000	0.00000000000000	0.00000000000000	0.00000000000000	0.00000000000000	0.00000000000000	0.00000000000000	14.23538500000000	0.00000000000000	0.00000000000000	0.00000000000000	0.00000000000000	
17.53993300000000	4.44565600000000	736.32337199999995	35.59088000000000	0.19383000000000	0.00000000000000	0.09730700000000	0.00000000000000	0.00000000000000	0.00000000000000	0.00000000000000	0.00000000000000	0.00000000000000	0.00000000000000	14.32248400000000	0.00000000000000	0.00000000000000	0.00000000000000	0.00000000000000	
17.54159500000000	4.00758500000000	737.81169799999998	35.65574400000000	0.19286800000000	0.00000000000000	0.09731300000000	0.00000000000000	0.00000000000000	0.00000000000000	0.00000000000000	0.00000000000000	0.00000000000000	0.00000000000000	14.41068200000000	0.00000000000000	0.00000000000000	0.00000000000000	0.00000000000000	
17.54326400000000	3.56230400000000	739.28384600000004	35.72028000000000	0.19190500000000	0.00000000000000	0.09731900000000	0.00000000000000	0.00000000000000	0.00000000000000	0.00000000000000	0.00000000000000	0.00000000000000	0.00000000000000	14.49984200000000	0.00000000000000	0.00000000000000	0.00000000000000	0.00000000000000	
17.54493100000000	3.11011800000000	740.73888399999998	35.78443400000000	0.19094100000000	0.00000000000000	0.09732500000000	0.00000000000000	0.00000000000000	0.00000000000000	0.00000000000000	0.00000000000000	0.00000000000000	0.00000000000000	14.58982500000000	0.00000000000000	0.00000000000000	0.00000000000000	0.00000000000000	
17.54660200000000	2.65135000000000	742.17601600000000	35.84817100000000	0.18997700000000	0.00000000000000	0.09733100000000	0.00000000000000	0.00000000000000	0.00000000000000	0.00000000000000	0.00000000000000	0.00000000000000	0.00000000000000	14.68049500000000	0.00000000000000	0.00000000000000	0.00000000000000	0.00000000000000	
17.54826900000000	2.18633600000000	743.59457299999997	35.91147500000000	0.18901300000000	0.00000000000000	0.09733600000000	0.00000000000000	0.00000000000000	0.00000000000000	0.00000000000000	0.00000000000000	0.00000000000000	0.00000000000000	14.77171600000000	0.00000000000000	0.00000000000000	0.00000000000000	0.00000000000000	
17.54992900000000	1.71542800000000	744.99401699999999	35.97435000000000	0.18805000000000	0.00000000000000	0.09734200000000	0.00000000000000	0.00000000000000	0.00000000000000	0.00000000000000	0.00000000000000	0.00000000000000	0.00000000000000	14.86335200000000	0.00000000000000	0.00000000000000	0.00000000000000	0.00000000000000	
17.55159700000000	1.23899000000000	746.37393499999996	36.03681800000000	0.18708800000000	0.00000000000000	0.09734800000000	0.00000000000000	0.00000000000000	0.00000000000000	0.00000000000000	0.00000000000000	0.00000000000000	0.00000000000000	14.95527000000000	0.00000000000000	0.00000000000000	0.00000000000000	0.00000000000000	
17.55326800000000	0.75739700000000	747.73403199999996	36.09892000000000	0.18612800000000	0.00000000000000	0.09735300000000	0.00000000000000	0.00000000000000	0.00000000000000	0.00000000000000	0.00000000000000	0.00000000000000	0.00000000000000	15.04733300000000	0.00000000000000	0.00000000000000	0.00000000000000	0.00000000000000	
17.55493000000000	0.27103500000000	749.07413199999996	36.16071400000000	0.18517000000000	0.00000000000000	0.09735800000000	0.00000000000000	0.00000000000000	0.00000000000000	0.00000000000000	0.00000000000000	0.00000000000000	0.00000000000000	15.13941000000000	0.00000000000000	0.00000000000000	0.00000000000000	0.00000000000000	
17.55660100000000	-0.21970000000000	750.39416700000004	36.22227700000000	0.18421400000000	0.00000000000000	0.09736200000000	0.00000000000000	0.00000000000000	0.00000000000000	0.00000000000000	0.00000000000000	0.00000000000000	0.00000000000000	15.23136900000000	0.00000000000000	0.00000000000000	0.00000000000000	0.00000000000000	
17.55826500000000	-0.71440400000000	751.69417699999997	36.28370200000000	0.18326100000000	0.00000000000000	0.09736600000000	0.00000000000000	0.00000000000000	0.00000000000000	0.00000000000000	0.00000000000000	0.00000000000000	0.00000000000000	15.32307700000000	0.00000000000000	0.00000000000000	0.00000000000000	0.00000000000000	
17.55993100000000	-1.21266700000000	752.97430199999997	36.34510000000000	0.18231100000000	0.00000000000000	0.09737000000000	0.00000000000000	0.00000000000000	0.00000000000000	0.00000000000000	0.00000000000000	0.00000000000000	0.00000000000000	15.41440500000000	0.00000000000000	0.00000000000000	0.00000000000000	0.00000000000000	
17.56159500000000	-1.71407100000000	754.23477500000001	36.40659500000000	0.18136300000000	0.00000000000000	0.09737300000000	0.00000000000000	0.00000000000000	0.00000000000000	0.00000000000000	0.00000000000000	0.00000000000000	0.00000000000000	15.50522500000000	0.00000000000000	0.00000000000000	0.00000000000000	0.00000000000000	
17.56326800000000	-2.21819600000000	755.47591899999998	36.46833000000000	0.18041700000000	0.00000000000000	0.09737600000000	0.00000000000000	0.00000000000000	0.00000000000000	0.00000000000000	0.00000000000000	0.00000000000000	0.00000000000000	15.59540900000000	0.00000000000000	0.00000000000000	0.00000000000000	0.00000000000000	
17.56493300000000	-2.72461800000000	756.69813599999998	36.53045900000000	0.17947500000000	0.00000000000000	0.09737900000000	0.00000000000000	0.00000000000000	0.00000000000000	0.00000000000000	0.00000000000000	0.00000000000000	0.00000000000000	15.68483300000000	0.00000000000000	0.00000000000000	0.00000000000000	0.00000000000000	
17.56659800000000	-3.23291000000000	757.90190500000006	36.59315100000000	0.17853500000000	0.00000000000000	0.09738100000000	0.00000000000000	0.00000000000000	0.00000000000000	0.00000000000000	0.00000000000000	0.00000000000000	0.00000000000000	15.77337200000000	0.00000000000000	0.00000000000000	0.00000000000000	0.00000000000000	
17.56826200000000	-3.74264400000000	759.08777099999998	36.65658400000000	0.17759700000000	0.00000000000000	0.09738200000000	0.00000000000000	0.00000000000000	0.00000000000000	0.00000000000000	0.00000000000000	0.00000000000000	0.00000000000000	15.86090500000000	0.00000000000000	0.00000000000000	0.00000000000000	0.00000000000000	
17.56993300000000	-4.25339400000000	760.25634200000002	36.72095300000000	0.17666200000000	0.00000000000000	0.09738300000000	0.00000000000000	0.00000000000000	0.00000000000000	0.00000000000000	0.00000000000000	0.00000000000000	0.00000000000000	15.94731300000000	0.00000000000000	0.00000000000000	0.00000000000000	0.00000000000000	
17.57159800000000	-4.76473500000000	761.40827700000000	36.78645700000000	0.17572900000000	0.00000000000000	0.09738400000000	0.00000000000000	0.00000000000000	0.00000000000000	0.00000000000000	0.00000000000000	0.00000000000000	0.00000000000000	16.03247800000000	0.00000000000000	0.00000000000000	0.00000000000000	0.00000000000000	
